<svg width="822" height="682" viewBox="0 0 822 682" fill="none" xmlns="http://www.w3.org/2000/svg">
<path fill-rule="evenodd" clip-rule="evenodd" d="M695.786 161.497C736.043 221.421 782.021 276.654 796.029 347.465C813.951 438.058 848.905 549.911 786.002 617.543C722.746 685.554 608.205 638.039 515.914 648.641C438.013 657.589 362.704 698.331 287.921 674.756C209.639 650.078 153.383 585.385 104.999 519.102C52.5088 447.197 -3.65916 369.523 0.187021 280.591C4.09424 190.247 50.5308 98.1706 125.398 47.4175C194.952 0.26624 286.972 36.8127 370.686 29.4272C438.3 23.4621 505.329 -17.1948 568.212 8.35107C631.32 33.9885 657.807 104.965 695.786 161.497Z" fill="#C4C4C4"/>
</svg>
