<svg width="822" height="682" viewBox="0 0 822 682" fill="none" xmlns="http://www.w3.org/2000/svg">
<path fill-rule="evenodd" clip-rule="evenodd" d="M695.786 161.497C705.65 176.18 715.858 190.582 725.854 205C735.263 218.569 744.484 232.153 753.056 246C762.295 260.924 770.779 276.153 777.932 292C785.869 309.587 792.165 327.933 796.029 347.465C798.502 359.963 801.298 372.865 804.117 386C807.221 400.461 810.352 415.204 813.107 430C817.04 451.115 820.208 472.337 821.443 493C822.299 507.344 822.224 521.418 820.825 535C819.238 550.41 815.947 565.185 810.381 579C804.766 592.936 796.835 605.895 786.002 617.543C777.252 626.951 767.519 634.149 757 639.596C743.493 646.589 728.689 650.696 713 652.888C695.266 655.366 676.401 655.398 657 654.391C642.874 653.657 628.464 652.372 614 651.079C596.612 649.524 579.145 647.956 562 647.318C546.265 646.733 530.8 646.931 515.914 648.641C497.135 650.798 478.507 654.802 460 659.308C444.588 663.061 429.26 667.161 414 670.831C399.506 674.317 385.072 677.415 370.686 679.458C357.086 681.39 343.528 682.38 330 681.865C315.946 681.33 301.924 679.17 287.921 674.756C272.829 669.998 258.556 663.753 245 656.297C232.775 649.572 221.133 641.861 210 633.367C198.483 624.58 187.51 614.954 177 604.713C168.571 596.499 160.439 587.89 152.561 579C144.233 569.601 136.19 559.889 128.381 550C120.357 539.838 112.581 529.49 104.999 519.102C95.6257 506.263 86.1356 493.239 76.8909 480C70.2216 470.449 63.6799 460.786 57.4022 451C51.2791 441.455 45.407 431.792 39.9123 422C33.2868 410.193 27.2099 398.2 21.9032 386C17.4724 375.814 13.5785 365.484 10.3503 355C6.42025 342.236 3.47697 329.243 1.75307 316C0.242103 304.393 -0.332119 292.594 0.187021 280.591C0.772589 267.051 2.31339 253.473 4.76196 240C7.27561 226.169 10.7459 212.45 15.1216 199C19.282 186.211 24.2608 173.665 30.0139 161.497C34.2975 152.437 39.0103 143.586 44.1342 135C51.673 122.367 60.1016 110.308 69.3619 99C76.4317 90.3666 83.9864 82.1707 92 74.4913C102.381 64.543 113.533 55.4613 125.398 47.4175C137.83 38.9898 150.98 33.2359 164.672 29.4272C176.734 26.0719 189.217 24.2262 202 23.3918C221.446 22.1226 241.587 23.1937 262 24.8509C270.602 25.5493 279.253 26.3517 287.921 27.1271C304.292 28.5914 320.723 29.9589 337 30.345C348.327 30.6136 359.579 30.4071 370.686 29.4272C386.84 28.0021 402.961 24.5966 419 20.5868C432.737 17.1526 446.414 13.275 460 9.81874C478.839 5.02603 497.505 1.04328 515.914 0.175513C533.607 -0.658462 551.063 1.38469 568.212 8.35108C581.203 13.6289 592.643 20.8281 602.951 29.4272C616.376 40.6275 627.88 54.2026 638.392 69C647.615 81.985 656.074 95.9112 664.395 110C674.675 127.407 684.745 145.062 695.786 161.497Z" fill="#C4C4C4"/>
</svg>
